<svg fill="#eaf7d4" height="40px" viewBox="0 0 512 512" width="40px" xmlns="http://www.w3.org/2000/svg"><path d="m448.800781 0h-192.800781c-34.90625 0-63.199219 28.242188-63.199219 63.199219v289.199219c0 12.269531 14.070313 19.445312 24 12l60.265625-45.199219h171.734375c34.90625 0 63.199219-28.242188 63.199219-63.199219v-192.800781c0-34.90625-28.242188-63.199219-63.199219-63.199219zm-111.402343 238.867188h-65.332032c-8.285156 0-15-6.714844-15-15 0-8.285157 6.714844-15 15-15h65.332032c8.285156 0 15 6.714843 15 15 0 8.285156-6.714844 15-15 15zm95.335937-64.265626h-160.667969c-8.285156 0-15-6.71875-15-15 0-8.285156 6.714844-15 15-15h160.667969c8.28125 0 15 6.714844 15 15 0 8.28125-6.714844 15-15 15zm0-64.269531h-160.667969c-8.285156 0-15-6.714843-15-15 0-8.28125 6.714844-15 15-15h160.667969c8.28125 0 15 6.71875 15 15 0 8.285157-6.714844 15-15 15zm0 0"/><path d="m166.238281 311.898438c0 39.160156-31.746093 70.90625-70.90625 70.90625-39.160156 0-70.90625-31.746094-70.90625-70.90625 0-39.164063 31.746094-70.910157 70.90625-70.910157 39.160157 0 70.90625 31.746094 70.90625 70.910157zm0 0"/><path d="m95.332031 382.804688c-52.648437 0-95.332031 42.683593-95.332031 95.332031v18.863281c0 8.285156 6.714844 15 15 15h160.667969c8.28125 0 15-6.714844 15-15v-18.863281c0-52.648438-42.683594-95.332031-95.335938-95.332031zm0 0"/></svg>